<svg width="55" height="37" viewBox="0 0 55 37" fill="none" xmlns="http://www.w3.org/2000/svg">
<rect width="55" height="37" fill="#F5F5F5"/>
<path d="M-800 -2350C-800 -2351.1 -799.105 -2352 -798 -2352H5723C5724.1 -2352 5725 -2351.1 5725 -2350V5818C5725 5819.1 5724.1 5820 5723 5820H-798C-799.105 5820 -800 5819.1 -800 5818V-2350Z" fill="#E5E5E5"/>
<rect width="1440" height="716" transform="translate(-590 -449)" fill="#EBEEF3"/>
<rect width="729" height="390" transform="translate(-205 -203)" fill="#F6F7F9"/>
<circle cx="18.5" cy="18.5" r="17.75" transform="rotate(-180 18.5 18.5)" stroke="#666666" stroke-width="1.5"/>
<path d="M16.4697 17.4697C16.1768 17.7626 16.1768 18.2374 16.4697 18.5303L21.2426 23.3033C21.5355 23.5962 22.0104 23.5962 22.3033 23.3033C22.5962 23.0104 22.5962 22.5355 22.3033 22.2426L18.0607 18L22.3033 13.7574C22.5962 13.4645 22.5962 12.9896 22.3033 12.6967C22.0104 12.4038 21.5355 12.4038 21.2426 12.6967L16.4697 17.4697ZM54.5 17.25L17 17.25L17 18.75L54.5 18.75L54.5 17.25Z" fill="#7F94B1"/>
<g clip-path="url(#clip0_105_4)">
<rect x="54.5" y="-27" width="60" height="91" fill="url(#paint0_linear_105_4)"/>
</g>
<path d="M-798 -2351H5723V-2353H-798V-2351ZM5724 -2350V5818H5726V-2350H5724ZM5723 5819H-798V5821H5723V5819ZM-799 5818V-2350H-801V5818H-799ZM-798 5819C-798.552 5819 -799 5818.55 -799 5818H-801C-801 5819.66 -799.657 5821 -798 5821V5819ZM5724 5818C5724 5818.55 5723.55 5819 5723 5819V5821C5724.66 5821 5726 5819.66 5726 5818H5724ZM5723 -2351C5723.55 -2351 5724 -2350.55 5724 -2350H5726C5726 -2351.66 5724.66 -2353 5723 -2353V-2351ZM-798 -2353C-799.657 -2353 -801 -2351.66 -801 -2350H-799C-799 -2350.55 -798.552 -2351 -798 -2351V-2353Z" fill="black" fill-opacity="0.1"/>
<defs>
<linearGradient id="paint0_linear_105_4" x1="71.5" y1="19" x2="111" y2="19" gradientUnits="userSpaceOnUse">
<stop stop-color="#F6F7F9"/>
<stop offset="1" stop-color="#F6F7F9" stop-opacity="0"/>
</linearGradient>
<clipPath id="clip0_105_4">
<rect width="210" height="91" fill="white" transform="translate(54.5 -27)"/>
</clipPath>
</defs>
</svg>
