<svg width="14" height="14" viewBox="0 0 14 14" fill="none" xmlns="http://www.w3.org/2000/svg">
<path d="M7.18475 13.8886L7.80347 13.2626C7.95034 13.114 7.95034 12.8738 7.80347 12.7252L2.95687 7.82195L13.625 7.82195C13.8313 7.82195 14 7.65124 14 7.44259L14 6.55741C14 6.34876 13.8313 6.17805 13.625 6.17805L2.95687 6.17805L7.80347 1.27481C7.95034 1.12623 7.95034 0.885966 7.80347 0.737383L7.18475 0.111437C7.03789 -0.0371461 6.8004 -0.0371461 6.65353 0.111437L0.11015 6.73129C-0.0367168 6.87987 -0.0367168 7.12013 0.11015 7.26871L6.65353 13.8886C6.8004 14.0371 7.03789 14.0371 7.18475 13.8886Z" fill="#ACB9CD"/>
</svg>
