<svg width="15" height="14" viewBox="0 0 15 14" fill="none" xmlns="http://www.w3.org/2000/svg">
<path d="M14.3886 6.81524L13.7626 6.19653C13.614 6.04966 13.3738 6.04966 13.2252 6.19653L8.32195 11.0431V0.374979C8.32195 0.168741 8.15124 0 7.94259 0H7.05741C6.84876 0 6.67805 0.168741 6.67805 0.374979V11.0431L1.77481 6.19653C1.62623 6.04966 1.38597 6.04966 1.23738 6.19653L0.611437 6.81524C0.462854 6.96211 0.462854 7.1996 0.611437 7.34647L7.23129 13.8899C7.37987 14.0367 7.62013 14.0367 7.76871 13.8899L14.3886 7.34647C14.5371 7.1996 14.5371 6.96211 14.3886 6.81524V6.81524Z" fill="#F2F2F2"/>
</svg>
