<svg width="21" height="20" viewBox="0 0 21 20" fill="none" xmlns="http://www.w3.org/2000/svg">
<path d="M10.274 4.84375C7.41689 4.84375 5.1401 7.16518 5.1401 9.97768C5.1401 12.8348 7.41689 15.1116 10.274 15.1116C13.0865 15.1116 15.408 12.8348 15.408 9.97768C15.408 7.16518 13.0865 4.84375 10.274 4.84375ZM10.274 13.3259C8.44367 13.3259 6.92582 11.8527 6.92582 9.97768C6.92582 8.14732 8.39903 6.67411 10.274 6.67411C12.1044 6.67411 13.5776 8.14732 13.5776 9.97768C13.5776 11.8527 12.1044 13.3259 10.274 13.3259ZM16.7919 4.66518C16.7919 3.99554 16.2562 3.45982 15.5865 3.45982C14.9169 3.45982 14.3812 3.99554 14.3812 4.66518C14.3812 5.33482 14.9169 5.87054 15.5865 5.87054C16.2562 5.87054 16.7919 5.33482 16.7919 4.66518ZM20.1847 5.87054C20.0955 4.26339 19.7383 2.83482 18.5776 1.67411C17.4169 0.513393 15.9883 0.15625 14.3812 0.0669643C12.7294 -0.0223214 7.77403 -0.0223214 6.12224 0.0669643C4.5151 0.15625 3.13117 0.513393 1.92582 1.67411C0.765102 2.83482 0.407959 4.26339 0.318673 5.87054C0.229388 7.52232 0.229388 12.4777 0.318673 14.1295C0.407959 15.7366 0.765102 17.1205 1.92582 18.3259C3.13117 19.4866 4.5151 19.8438 6.12224 19.933C7.77403 20.0223 12.7294 20.0223 14.3812 19.933C15.9883 19.8438 17.4169 19.4866 18.5776 18.3259C19.7383 17.1205 20.0955 15.7366 20.1847 14.1295C20.274 12.4777 20.274 7.52232 20.1847 5.87054ZM18.0419 15.8705C17.7294 16.7634 17.0151 17.433 16.1669 17.7902C14.8276 18.3259 11.7026 18.192 10.274 18.192C8.80082 18.192 5.67582 18.3259 4.38117 17.7902C3.48832 17.433 2.81867 16.7634 2.46153 15.8705C1.92582 14.5759 2.05974 11.4509 2.05974 9.97768C2.05974 8.54911 1.92582 5.42411 2.46153 4.08482C2.81867 3.23661 3.48832 2.56696 4.38117 2.20982C5.67582 1.67411 8.80082 1.80804 10.274 1.80804C11.7026 1.80804 14.8276 1.67411 16.1669 2.20982C17.0151 2.52232 17.6847 3.23661 18.0419 4.08482C18.5776 5.42411 18.4437 8.54911 18.4437 9.97768C18.4437 11.4509 18.5776 14.5759 18.0419 15.8705Z" fill="#F2F2F2"/>
</svg>
