<svg width="21" height="20" viewBox="0 0 21 20" fill="none" xmlns="http://www.w3.org/2000/svg">
<path d="M18.8231 0H1.63564C0.876709 0 0.251709 0.669643 0.251709 1.47321V18.5714C0.251709 19.375 0.876709 20 1.63564 20H18.8231C19.5821 20 20.2517 19.375 20.2517 18.5714V1.47321C20.2517 0.669643 19.5821 0 18.8231 0ZM6.27849 17.1429H3.33207V7.63393H6.27849V17.1429ZM4.80528 6.29464C3.82314 6.29464 3.06421 5.53571 3.06421 4.59821C3.06421 3.66071 3.82314 2.85714 4.80528 2.85714C5.74278 2.85714 6.50171 3.66071 6.50171 4.59821C6.50171 5.53571 5.74278 6.29464 4.80528 6.29464ZM17.3946 17.1429H14.4035V12.5C14.4035 11.4286 14.4035 10 12.8856 10C11.3231 10 11.0999 11.2054 11.0999 12.4554V17.1429H8.15349V7.63393H10.966V8.92857H11.0106C11.4124 8.16964 12.3946 7.36607 13.8231 7.36607C16.8142 7.36607 17.3946 9.375 17.3946 11.9196V17.1429Z" fill="#F2F2F2"/>
</svg>
