<svg width="25" height="20" viewBox="0 0 25 20" fill="none" xmlns="http://www.w3.org/2000/svg">
<path d="M22.494 4.96386C23.4579 4.24096 24.3253 3.37349 25 2.36145C24.1326 2.74699 23.1205 3.03614 22.1085 3.13253C23.1687 2.50602 23.9398 1.54217 24.3253 0.337349C23.3615 0.915663 22.2531 1.3494 21.1446 1.59036C20.1808 0.578313 18.8796 0 17.4338 0C14.6386 0 12.3735 2.26506 12.3735 5.06024C12.3735 5.44578 12.4217 5.83133 12.5181 6.21687C8.32534 5.9759 4.56631 3.95181 2.06028 0.915663C1.62655 1.63855 1.38558 2.50602 1.38558 3.46988C1.38558 5.20482 2.25305 6.74699 3.65064 7.66265C2.83137 7.61446 2.01209 7.42169 1.33739 7.03614V7.08434C1.33739 9.54217 3.07233 11.5663 5.38558 12.0482C5.00004 12.1446 4.51811 12.241 4.08438 12.241C3.74703 12.241 3.45787 12.1928 3.12052 12.1446C3.74703 14.1687 5.62655 15.6145 7.84341 15.6627C6.10847 17.012 3.9398 17.8313 1.57835 17.8313C1.14462 17.8313 0.759077 17.7831 0.373535 17.7349C2.5904 19.1807 5.241 20 8.13257 20C17.4338 20 22.494 12.3373 22.494 5.63855C22.494 5.39759 22.494 5.20482 22.494 4.96386Z" fill="#F2F2F2"/>
</svg>
